<svg width="20" height="20" viewBox="0 0 20 20" fill="none" xmlns="http://www.w3.org/2000/svg">
<g opacity="0.7">
<path fill-rule="evenodd" clip-rule="evenodd" d="M10.0304 4.03912L9.13682 3.12064C7.03939 0.964635 3.19348 1.70864 1.80516 4.41923C1.15337 5.69414 1.00632 7.53484 2.19648 9.88401C3.34303 12.1459 5.72834 14.8553 10.0304 17.8064C14.3324 14.8553 16.7165 12.1459 17.8643 9.88401C19.0544 7.53359 18.9086 5.69414 18.2556 4.41923C16.8673 1.70864 13.0214 0.963389 10.9239 3.11939L10.0304 4.03912ZM10.0304 19.3081C-9.0783 6.68116 4.14685 -3.17414 9.81104 2.0389C9.88581 2.10744 9.95934 2.17848 10.0304 2.25201C10.1007 2.17854 10.1739 2.10787 10.2497 2.04014C15.9127 -3.17664 29.1391 6.67991 10.0304 19.3081Z" fill="#0A032A"/>
</g>
</svg>
