<svg xmlns="http://www.w3.org/2000/svg" version="1.1"><path d="M 639,751 Z" fill="black" stroke="none"/><path d="M 623,751 Z" fill="black" stroke="none"/><path d="M 573,751 Z" fill="black" stroke="none"/><path d="M 483,751 Z" fill="black" stroke="none"/><path d="M 478,751 Z" fill="black" stroke="none"/><path d="M 655,750 Z" fill="black" stroke="none"/><path d="M 637,750 Z" fill="black" stroke="none"/><path d="M 402,750 Z" fill="black" stroke="none"/><path d="M 481,749 L 481,750 Z" fill="black" stroke="none"/><path d="M 424,749 Z" fill="black" stroke="none"/><path d="M 503,746 Z" fill="black" stroke="none"/><path d="M 480,746 L 480,747 Z" fill="black" stroke="none"/><path d="M 633,744 Z" fill="black" stroke="none"/><path d="M 525,744 L 525,745 Z" fill="black" stroke="none"/><path d="M 509,744 L 509,745 Z" fill="black" stroke="none"/><path d="M 507,744 Z" fill="black" stroke="none"/><path d="M 477,744 Z" fill="black" stroke="none"/><path d="M 392,743 Z" fill="black" stroke="none"/><path d="M 394,741 L 394,742 Z" fill="black" stroke="none"/><path d="M 392,740 Z" fill="black" stroke="none"/><path d="M 384,740 Z" fill="black" stroke="none"/><path d="M 387,739 Z" fill="black" stroke="none"/><path d="M 523,735 Z" fill="black" stroke="none"/><path d="M 480,733 Z" fill="black" stroke="none"/><path d="M 449,733 Z" fill="black" stroke="none"/><path d="M 633,731 L 633,732 Z" fill="black" stroke="none"/><path d="M 502,731 Z" fill="black" stroke="none"/><path d="M 569,730 Z" fill="black" stroke="none"/><path d="M 567,730 Z" fill="black" stroke="none"/><path d="M 563,730 L 564,730 Z" fill="black" stroke="none"/><path d="M 448,730 Z" fill="black" stroke="none"/><path d="M 391,729 Z" fill="black" stroke="none"/><path d="M 613,728 Z" fill="black" stroke="none"/><path d="M 572,728 Z" fill="black" stroke="none"/><path d="M 532,728 Z" fill="black" stroke="none"/><path d="M 480,728 Z" fill="black" stroke="none"/><path d="M 617,727 L 617,748 L 616,749 L 617,750 L 618,750 L 619,751 L 619,750 L 620,749 L 621,750 L 621,751 L 621,750 L 622,749 L 623,749 L 622,748 L 622,747 L 623,746 L 622,745 L 622,738 L 623,737 L 623,735 L 624,734 L 625,734 L 626,733 L 628,733 L 629,732 L 630,732 L 630,730 L 631,729 L 630,728 L 630,727 L 624,727 L 623,728 L 622,727 Z" fill="black" stroke="none"/><path d="M 595,727 L 593,729 L 592,729 L 590,731 L 590,732 L 589,733 L 589,734 L 588,735 L 588,741 L 589,742 L 589,744 L 590,745 L 590,746 L 593,749 L 594,749 L 595,750 L 605,750 L 606,749 L 607,749 L 608,748 L 609,748 L 609,745 L 606,742 L 603,745 L 598,745 L 594,741 L 595,740 L 609,740 L 610,741 L 611,740 L 611,736 L 610,735 L 610,733 L 609,732 L 609,731 L 606,728 L 605,728 L 604,727 Z" fill="black" stroke="none"/><path d="M 487,727 L 486,728 L 484,728 L 482,730 L 482,731 L 483,732 L 483,733 L 484,734 L 485,734 L 486,733 L 488,733 L 489,732 L 492,732 L 495,735 L 494,736 L 486,736 L 485,737 L 484,737 L 482,739 L 482,741 L 481,742 L 481,744 L 482,745 L 482,747 L 485,750 L 488,750 L 489,751 L 490,750 L 494,750 L 495,749 L 497,749 L 498,750 L 499,750 L 500,751 L 500,750 L 501,749 L 503,749 L 502,749 L 501,748 L 501,733 L 500,732 L 500,731 L 499,730 L 499,729 L 500,728 L 501,728 L 500,728 L 499,729 L 498,729 L 497,728 L 496,728 L 495,727 Z" fill="black" stroke="none"/><path d="M 648,726 L 647,727 L 641,727 L 640,728 L 639,728 L 636,731 L 636,732 L 635,733 L 635,734 L 634,735 L 634,740 L 635,741 L 635,744 L 636,745 L 636,746 L 639,749 L 640,749 L 641,750 L 651,750 L 652,749 L 653,749 L 655,747 L 655,745 L 654,744 L 654,743 L 653,743 L 652,742 L 649,745 L 644,745 L 641,742 L 641,741 L 642,740 L 654,740 L 655,741 L 657,739 L 657,735 L 656,734 L 656,733 L 655,732 L 655,730 L 654,730 L 653,729 L 652,729 L 650,727 L 649,727 Z" fill="black" stroke="none"/><path d="M 511,726 L 510,727 L 511,728 L 511,750 L 512,749 L 513,749 L 515,751 L 515,750 L 516,749 L 516,736 L 518,734 L 519,735 L 518,734 L 519,733 L 521,733 L 522,732 L 523,732 L 527,736 L 527,750 L 528,749 L 530,749 L 531,750 L 532,749 L 532,732 L 530,730 L 530,729 L 529,728 L 528,728 L 527,727 L 519,727 L 518,728 L 517,728 L 516,727 L 512,727 Z" fill="black" stroke="none"/><path d="M 471,726 L 470,727 L 469,727 L 468,728 L 467,728 L 466,727 L 458,727 L 456,729 L 455,729 L 453,731 L 453,732 L 452,733 L 452,736 L 451,737 L 451,739 L 452,740 L 452,743 L 455,746 L 455,747 L 456,747 L 457,748 L 461,748 L 462,749 L 463,748 L 464,749 L 465,748 L 467,748 L 468,747 L 469,748 L 469,749 L 466,752 L 460,752 L 459,751 L 457,751 L 456,750 L 454,750 L 454,751 L 453,752 L 453,755 L 454,756 L 456,756 L 457,757 L 469,757 L 470,756 L 471,756 L 473,754 L 473,753 L 474,752 L 474,750 L 475,749 L 475,727 L 472,727 Z" fill="black" stroke="none"/><path d="M 431,726 L 429,728 L 428,728 L 427,729 L 426,729 L 425,730 L 425,731 L 424,732 L 423,731 L 424,732 L 424,733 L 422,735 L 423,736 L 423,743 L 424,744 L 424,745 L 425,746 L 425,747 L 427,749 L 428,749 L 429,750 L 438,750 L 439,749 L 441,749 L 442,750 L 441,749 L 441,748 L 444,745 L 444,743 L 445,742 L 445,735 L 444,734 L 444,733 L 443,732 L 443,731 L 440,728 L 439,728 L 438,727 L 432,727 Z" fill="black" stroke="none"/><path d="M 391,726 L 390,727 L 389,727 L 390,727 L 391,726 L 392,726 Z" fill="black" stroke="none"/><path d="M 552,725 Z" fill="black" stroke="none"/><path d="M 555,720 L 554,721 L 553,721 L 554,722 L 554,749 L 555,750 L 557,750 L 558,749 L 559,750 L 560,750 L 560,743 L 561,742 L 560,741 L 561,740 L 560,739 L 562,737 L 563,738 L 564,737 L 565,737 L 566,738 L 567,737 L 573,737 L 574,738 L 574,749 L 575,750 L 576,749 L 577,749 L 579,751 L 579,750 L 580,749 L 580,722 L 581,721 L 580,721 L 579,720 L 575,720 L 574,721 L 573,721 L 574,722 L 574,731 L 573,732 L 561,732 L 560,731 L 561,730 L 560,729 L 561,728 L 560,727 L 560,720 Z" fill="black" stroke="none"/><path d="M 387,719 L 386,720 L 385,720 L 384,721 L 383,721 L 382,722 L 382,723 L 381,724 L 381,725 L 380,726 L 380,729 L 381,730 L 381,732 L 382,733 L 382,734 L 383,734 L 384,735 L 385,735 L 386,736 L 387,736 L 388,737 L 391,737 L 392,738 L 394,738 L 397,741 L 397,742 L 394,745 L 388,745 L 387,744 L 386,744 L 384,742 L 381,742 L 381,744 L 380,745 L 380,747 L 382,749 L 384,749 L 385,750 L 397,750 L 398,749 L 399,749 L 403,745 L 403,738 L 402,737 L 402,736 L 403,735 L 402,736 L 400,734 L 399,734 L 398,733 L 396,733 L 395,732 L 392,732 L 391,731 L 390,731 L 389,730 L 388,730 L 387,729 L 387,726 L 388,725 L 389,725 L 390,724 L 394,724 L 395,725 L 397,725 L 398,726 L 401,726 L 401,724 L 402,723 L 402,721 L 401,721 L 400,720 L 398,720 L 397,719 Z" fill="black" stroke="none"/><path d="M 410,717 L 410,718 L 409,719 L 410,720 L 410,747 L 409,748 L 409,749 L 410,750 L 410,751 L 411,750 L 412,750 L 413,749 L 414,750 L 415,749 L 415,718 L 414,717 L 413,718 L 411,718 Z" fill="black" stroke="none"/><path d="M 412,716 Z" fill="black" stroke="none"/><path d="M 766,703 Z" fill="black" stroke="none"/><path d="M 772,702 Z" fill="black" stroke="none"/><path d="M 700,702 L 701,702 Z" fill="black" stroke="none"/><path d="M 568,702 Z" fill="black" stroke="none"/><path d="M 362,702 L 363,702 Z" fill="black" stroke="none"/><path d="M 320,702 L 321,702 Z" fill="black" stroke="none"/><path d="M 768,701 Z" fill="black" stroke="none"/><path d="M 671,701 Z" fill="black" stroke="none"/><path d="M 764,700 Z" fill="black" stroke="none"/><path d="M 696,700 L 696,701 Z" fill="black" stroke="none"/><path d="M 599,699 Z" fill="black" stroke="none"/><path d="M 795,698 Z" fill="black" stroke="none"/><path d="M 649,696 Z" fill="black" stroke="none"/><path d="M 732,695 Z" fill="black" stroke="none"/><path d="M 804,687 Z" fill="black" stroke="none"/><path d="M 583,683 Z" fill="black" stroke="none"/><path d="M 556,682 Z" fill="black" stroke="none"/><path d="M 588,678 Z" fill="black" stroke="none"/><path d="M 579,675 Z" fill="black" stroke="none"/><path d="M 747,672 Z" fill="black" stroke="none"/><path d="M 570,671 Z" fill="black" stroke="none"/><path d="M 646,669 Z" fill="black" stroke="none"/><path d="M 643,669 Z" fill="black" stroke="none"/><path d="M 611,664 Z" fill="black" stroke="none"/><path d="M 561,663 Z" fill="black" stroke="none"/><path d="M 599,658 Z" fill="black" stroke="none"/><path d="M 675,652 Z" fill="black" stroke="none"/><path d="M 614,647 Z" fill="black" stroke="none"/><path d="M 560,647 Z" fill="black" stroke="none"/><path d="M 778,646 L 777,647 L 776,647 L 775,648 L 774,648 L 773,649 L 772,649 L 771,648 L 771,647 L 753,647 L 754,648 L 754,649 L 753,650 L 753,653 L 752,654 L 752,660 L 751,661 L 751,662 L 750,663 L 751,664 L 751,665 L 750,666 L 750,670 L 749,671 L 749,675 L 748,676 L 748,680 L 747,681 L 747,685 L 746,686 L 746,690 L 745,691 L 745,696 L 744,697 L 744,702 L 743,703 L 743,706 L 742,707 L 742,711 L 741,712 L 741,716 L 740,717 L 740,718 L 741,719 L 742,718 L 755,718 L 756,719 L 757,718 L 758,719 L 759,718 L 759,714 L 760,713 L 760,709 L 761,708 L 761,703 L 762,702 L 762,698 L 763,697 L 763,696 L 764,695 L 765,696 L 765,697 L 766,698 L 768,698 L 770,700 L 774,700 L 775,701 L 776,700 L 786,700 L 787,699 L 789,699 L 791,697 L 792,697 L 794,695 L 795,695 L 798,692 L 799,693 L 799,694 L 799,693 L 798,692 L 799,691 L 800,691 L 799,690 L 801,688 L 801,687 L 802,686 L 802,685 L 803,684 L 803,683 L 804,682 L 804,679 L 805,678 L 805,674 L 806,673 L 806,667 L 805,666 L 805,662 L 804,661 L 804,659 L 803,658 L 803,657 L 802,656 L 802,655 L 796,649 L 797,648 L 798,648 L 797,648 L 796,649 L 795,649 L 794,648 L 793,648 L 792,647 L 791,647 L 790,646 Z" fill="black" stroke="none"/><path d="M 707,646 L 706,647 L 704,647 L 703,648 L 701,648 L 700,649 L 699,649 L 698,650 L 697,650 L 695,652 L 694,652 L 694,653 L 693,654 L 692,654 L 692,655 L 689,658 L 689,659 L 686,662 L 686,664 L 685,665 L 685,668 L 684,669 L 684,674 L 683,675 L 683,676 L 684,677 L 684,683 L 685,684 L 685,686 L 686,687 L 686,688 L 687,689 L 687,690 L 689,692 L 689,693 L 690,694 L 691,694 L 694,697 L 695,697 L 696,698 L 697,698 L 698,699 L 700,699 L 701,700 L 706,700 L 707,701 L 711,701 L 712,700 L 718,700 L 719,699 L 722,699 L 723,698 L 724,698 L 725,697 L 726,697 L 728,695 L 729,695 L 732,692 L 733,692 L 734,691 L 734,690 L 735,689 L 735,688 L 737,686 L 737,685 L 738,684 L 738,683 L 739,682 L 739,680 L 740,679 L 741,680 L 740,679 L 740,676 L 741,675 L 741,666 L 740,665 L 740,662 L 739,661 L 739,659 L 738,658 L 738,657 L 739,656 L 738,657 L 737,656 L 737,655 L 736,654 L 735,654 L 734,653 L 734,652 L 735,651 L 734,652 L 733,652 L 732,651 L 732,650 L 731,650 L 730,649 L 729,649 L 728,648 L 726,648 L 725,647 L 723,647 L 722,646 Z" fill="black" stroke="none"/><path d="M 517,646 L 516,647 L 514,647 L 513,648 L 512,648 L 511,649 L 510,649 L 509,650 L 508,650 L 506,652 L 505,652 L 504,653 L 504,654 L 500,658 L 500,659 L 499,660 L 499,661 L 498,662 L 498,663 L 497,664 L 497,666 L 496,667 L 496,674 L 495,675 L 495,679 L 496,680 L 496,686 L 497,687 L 497,688 L 498,689 L 498,692 L 499,693 L 500,693 L 502,695 L 503,695 L 506,698 L 508,698 L 509,699 L 511,699 L 512,700 L 513,700 L 514,701 L 525,701 L 526,700 L 530,700 L 531,699 L 533,699 L 534,698 L 535,698 L 536,697 L 537,697 L 539,695 L 540,695 L 541,694 L 541,692 L 540,691 L 540,690 L 539,689 L 539,687 L 536,684 L 535,684 L 533,686 L 532,686 L 530,688 L 527,688 L 526,689 L 516,689 L 515,688 L 514,688 L 510,684 L 510,683 L 509,682 L 509,680 L 510,679 L 511,679 L 512,678 L 546,678 L 548,676 L 548,667 L 547,666 L 547,661 L 546,660 L 546,659 L 545,658 L 545,656 L 544,656 L 543,655 L 543,653 L 542,653 L 540,651 L 539,651 L 536,648 L 535,648 L 534,647 L 533,647 L 532,646 Z" fill="black" stroke="none"/><path d="M 448,646 L 447,647 L 440,647 L 440,648 L 439,649 L 439,656 L 438,657 L 438,661 L 437,662 L 437,665 L 436,666 L 436,671 L 435,672 L 435,677 L 434,678 L 434,683 L 433,684 L 433,687 L 432,688 L 432,693 L 431,694 L 431,695 L 430,696 L 430,699 L 431,700 L 443,700 L 443,699 L 444,698 L 444,695 L 445,694 L 445,691 L 446,690 L 446,687 L 447,686 L 447,680 L 448,679 L 448,676 L 449,675 L 449,671 L 450,670 L 450,668 L 451,667 L 451,666 L 456,661 L 457,661 L 458,660 L 459,660 L 460,659 L 468,659 L 470,661 L 471,661 L 472,662 L 472,664 L 473,665 L 473,669 L 472,670 L 472,677 L 471,678 L 471,681 L 470,682 L 470,687 L 469,688 L 469,692 L 468,693 L 468,697 L 467,698 L 467,699 L 468,699 L 469,700 L 479,700 L 480,699 L 481,699 L 481,695 L 482,694 L 482,690 L 483,689 L 483,683 L 484,682 L 484,680 L 485,679 L 485,673 L 486,672 L 486,658 L 485,657 L 485,655 L 484,654 L 484,653 L 479,648 L 477,648 L 476,647 L 475,647 L 474,646 L 460,646 L 459,647 L 458,647 L 457,648 L 453,648 L 452,647 L 451,647 L 450,646 Z" fill="black" stroke="none"/><path d="M 414,646 L 412,648 L 412,653 L 411,654 L 411,658 L 410,659 L 410,663 L 409,664 L 409,668 L 408,669 L 408,674 L 407,675 L 407,677 L 406,678 L 406,685 L 405,686 L 405,690 L 404,691 L 404,695 L 403,696 L 403,699 L 404,700 L 416,700 L 416,698 L 417,697 L 417,692 L 418,691 L 418,687 L 419,686 L 420,687 L 420,685 L 419,684 L 419,681 L 420,680 L 420,677 L 421,676 L 421,670 L 422,669 L 422,666 L 423,665 L 423,660 L 424,659 L 424,656 L 425,655 L 425,647 L 423,647 L 422,646 Z" fill="black" stroke="none"/><path d="M 323,646 L 320,649 L 320,655 L 319,656 L 319,660 L 318,661 L 318,665 L 317,666 L 317,671 L 316,672 L 316,676 L 315,677 L 315,680 L 314,681 L 314,687 L 313,688 L 313,690 L 312,691 L 312,696 L 311,697 L 311,698 L 312,699 L 312,700 L 324,700 L 325,699 L 325,694 L 326,693 L 326,690 L 327,689 L 327,688 L 328,687 L 328,685 L 327,684 L 327,683 L 328,682 L 328,681 L 329,680 L 329,672 L 330,671 L 330,670 L 331,669 L 331,668 L 332,667 L 332,666 L 335,663 L 335,662 L 336,661 L 338,661 L 339,660 L 340,660 L 341,659 L 348,659 L 349,660 L 350,660 L 353,663 L 353,664 L 354,665 L 354,670 L 353,671 L 353,675 L 352,676 L 352,680 L 351,681 L 351,685 L 350,686 L 350,691 L 349,692 L 349,697 L 348,698 L 348,699 L 349,700 L 351,700 L 352,701 L 353,701 L 354,700 L 357,700 L 358,701 L 359,701 L 362,698 L 362,696 L 363,695 L 363,688 L 364,687 L 364,683 L 365,682 L 365,678 L 366,677 L 366,672 L 367,671 L 367,657 L 366,656 L 366,655 L 365,654 L 365,653 L 364,652 L 364,651 L 363,651 L 360,648 L 359,648 L 358,647 L 357,647 L 356,646 L 341,646 L 340,647 L 339,647 L 338,648 L 337,648 L 336,649 L 334,649 L 333,648 L 333,647 L 332,647 L 331,646 L 328,646 L 327,647 L 326,647 L 325,646 Z" fill="black" stroke="none"/><path d="M 241,640 Z" fill="black" stroke="none"/><path d="M 626,632 L 626,635 Z" fill="black" stroke="none"/><path d="M 584,630 L 583,631 L 580,631 L 579,632 L 577,632 L 576,633 L 575,633 L 574,634 L 573,634 L 572,635 L 571,635 L 568,638 L 567,638 L 566,639 L 566,640 L 565,641 L 565,642 L 564,643 L 564,644 L 562,646 L 561,645 L 561,644 L 561,645 L 562,646 L 562,651 L 561,652 L 562,653 L 562,655 L 561,656 L 561,657 L 562,658 L 562,661 L 563,662 L 563,663 L 569,669 L 568,670 L 569,669 L 571,669 L 572,670 L 573,670 L 574,671 L 576,671 L 577,672 L 579,672 L 580,673 L 582,673 L 583,674 L 585,674 L 586,675 L 588,675 L 589,676 L 590,676 L 591,677 L 592,677 L 593,678 L 593,680 L 592,681 L 592,682 L 591,683 L 590,683 L 589,684 L 588,684 L 587,685 L 577,685 L 576,684 L 573,684 L 572,683 L 570,683 L 569,682 L 567,682 L 566,681 L 565,681 L 563,679 L 562,679 L 561,678 L 560,679 L 560,680 L 558,682 L 558,683 L 557,684 L 557,685 L 556,686 L 556,687 L 554,689 L 553,688 L 554,689 L 554,691 L 553,692 L 553,694 L 554,694 L 555,695 L 557,695 L 559,697 L 561,697 L 562,698 L 564,698 L 565,699 L 568,699 L 569,700 L 583,700 L 584,701 L 585,700 L 591,700 L 592,699 L 594,699 L 595,698 L 597,698 L 598,697 L 600,697 L 603,694 L 604,694 L 605,695 L 606,695 L 605,695 L 604,694 L 609,689 L 609,687 L 611,685 L 611,682 L 612,681 L 612,673 L 611,672 L 611,669 L 609,667 L 609,666 L 608,665 L 607,665 L 604,662 L 603,662 L 602,661 L 601,661 L 600,660 L 598,660 L 597,659 L 594,659 L 593,658 L 591,658 L 590,657 L 587,657 L 586,656 L 584,656 L 583,655 L 583,654 L 582,654 L 580,652 L 580,651 L 582,649 L 582,648 L 583,647 L 585,647 L 586,646 L 589,646 L 590,645 L 594,645 L 595,646 L 600,646 L 601,647 L 603,647 L 604,648 L 605,648 L 606,649 L 607,649 L 608,650 L 611,650 L 611,648 L 612,647 L 612,646 L 613,645 L 613,644 L 614,643 L 614,642 L 615,641 L 615,640 L 616,639 L 616,638 L 617,637 L 617,636 L 616,635 L 615,635 L 613,633 L 610,633 L 609,632 L 608,632 L 607,631 L 604,631 L 603,630 Z" fill="black" stroke="none"/><path d="M 267,630 L 266,631 L 264,631 L 263,632 L 259,632 L 258,633 L 257,633 L 255,635 L 254,635 L 253,636 L 252,636 L 251,637 L 250,637 L 249,638 L 249,639 L 247,641 L 246,641 L 246,642 L 241,647 L 241,649 L 239,651 L 239,652 L 238,653 L 238,655 L 237,656 L 237,659 L 236,660 L 236,664 L 235,665 L 235,677 L 236,678 L 236,682 L 237,683 L 237,684 L 238,685 L 238,687 L 239,688 L 239,689 L 240,690 L 240,691 L 241,691 L 244,694 L 244,695 L 245,695 L 247,697 L 249,697 L 250,698 L 251,698 L 252,699 L 254,699 L 255,700 L 258,700 L 259,701 L 277,701 L 278,700 L 280,700 L 281,699 L 282,699 L 283,698 L 284,698 L 285,697 L 286,697 L 287,696 L 288,696 L 289,695 L 290,695 L 291,694 L 292,694 L 295,691 L 296,691 L 296,690 L 299,687 L 299,686 L 302,683 L 302,681 L 303,680 L 303,679 L 305,677 L 305,675 L 306,674 L 306,671 L 307,670 L 307,650 L 305,648 L 305,646 L 304,645 L 304,644 L 303,643 L 303,642 L 301,640 L 301,639 L 297,635 L 296,635 L 295,634 L 294,634 L 292,632 L 288,632 L 287,631 L 286,631 L 285,630 Z" fill="black" stroke="none"/><path d="M 630,627 L 629,628 L 629,630 L 628,631 L 629,632 L 628,633 L 628,637 L 627,638 L 627,642 L 626,643 L 626,649 L 625,650 L 625,654 L 624,655 L 624,659 L 623,660 L 623,662 L 622,663 L 623,664 L 623,665 L 622,666 L 622,670 L 621,671 L 621,674 L 620,675 L 620,680 L 619,681 L 619,685 L 618,686 L 618,690 L 617,691 L 617,696 L 616,697 L 616,699 L 617,700 L 616,701 L 617,701 L 619,699 L 631,699 L 632,700 L 633,700 L 634,699 L 635,699 L 635,694 L 636,693 L 636,688 L 637,687 L 637,683 L 638,682 L 638,679 L 639,678 L 639,674 L 640,673 L 640,670 L 641,669 L 641,668 L 642,667 L 642,666 L 643,665 L 644,665 L 646,663 L 647,663 L 648,662 L 653,662 L 654,663 L 655,663 L 656,664 L 656,665 L 657,666 L 657,670 L 656,671 L 657,672 L 657,673 L 656,674 L 656,679 L 655,680 L 655,684 L 654,685 L 654,686 L 653,687 L 654,688 L 654,689 L 653,690 L 653,694 L 652,695 L 652,697 L 651,698 L 651,699 L 652,699 L 653,700 L 654,699 L 667,699 L 668,700 L 669,700 L 670,699 L 670,697 L 671,696 L 671,692 L 672,691 L 672,686 L 673,685 L 673,682 L 674,681 L 674,675 L 675,674 L 675,670 L 676,669 L 676,660 L 675,659 L 675,656 L 674,655 L 674,654 L 672,652 L 672,651 L 671,651 L 670,650 L 670,649 L 669,649 L 668,648 L 667,648 L 666,647 L 664,647 L 663,646 L 651,646 L 650,647 L 649,647 L 648,648 L 647,648 L 646,649 L 645,649 L 644,648 L 644,646 L 645,645 L 645,642 L 646,641 L 646,635 L 647,634 L 647,631 L 648,630 L 648,628 L 647,627 Z" fill="black" stroke="none"/><path d="M 390,627 L 389,628 L 389,630 L 388,631 L 388,636 L 387,637 L 387,640 L 386,641 L 386,645 L 385,646 L 385,651 L 384,652 L 384,655 L 383,656 L 383,660 L 382,661 L 382,667 L 381,668 L 381,671 L 380,672 L 380,677 L 379,678 L 379,681 L 378,682 L 378,687 L 377,688 L 377,692 L 376,693 L 376,699 L 377,700 L 388,700 L 389,699 L 389,695 L 390,694 L 390,692 L 391,691 L 391,684 L 392,683 L 392,681 L 393,680 L 393,674 L 394,673 L 394,672 L 395,671 L 395,664 L 396,663 L 396,661 L 397,660 L 397,654 L 398,653 L 398,649 L 399,648 L 399,644 L 400,643 L 400,640 L 401,639 L 401,632 L 402,631 L 402,627 Z" fill="black" stroke="none"/><path d="M 416,624 L 416,625 L 417,626 L 414,629 L 414,635 L 415,636 L 415,637 L 417,639 L 418,639 L 419,640 L 425,640 L 426,639 L 427,639 L 430,636 L 430,627 L 429,626 L 428,626 L 427,625 L 426,625 L 425,624 L 420,624 L 419,625 L 418,625 L 417,626 L 416,625 Z" fill="black" stroke="none"/><path d="M 501,501 L 500,502 L 496,502 L 494,504 L 492,504 L 490,506 L 489,506 L 487,508 L 486,508 L 479,515 L 479,516 L 478,517 L 478,519 L 476,521 L 476,523 L 475,524 L 475,526 L 474,527 L 474,541 L 475,542 L 475,545 L 476,546 L 476,548 L 478,550 L 478,552 L 481,555 L 481,556 L 482,556 L 483,557 L 483,558 L 486,561 L 487,561 L 489,563 L 490,563 L 491,564 L 492,564 L 493,565 L 495,565 L 496,566 L 498,566 L 499,567 L 517,567 L 518,566 L 520,566 L 522,564 L 523,564 L 524,563 L 525,563 L 526,562 L 527,562 L 535,554 L 535,553 L 536,552 L 536,551 L 537,550 L 537,549 L 538,548 L 538,547 L 539,546 L 539,544 L 540,543 L 540,526 L 539,525 L 539,523 L 538,522 L 538,521 L 537,520 L 537,518 L 536,517 L 536,516 L 534,514 L 534,513 L 532,511 L 532,510 L 531,510 L 528,507 L 527,507 L 526,506 L 525,506 L 523,504 L 521,504 L 520,503 L 519,503 L 518,502 L 515,502 L 514,501 Z" fill="black" stroke="none"/><path d="M 636,475 L 635,476 L 628,476 L 627,477 L 626,477 L 625,476 L 625,477 L 624,478 L 623,478 L 622,479 L 621,479 L 620,480 L 618,480 L 618,481 L 617,482 L 616,482 L 616,483 L 615,484 L 614,484 L 614,485 L 612,487 L 612,488 L 611,489 L 610,489 L 610,490 L 609,491 L 609,492 L 608,493 L 608,494 L 606,496 L 606,500 L 605,501 L 605,516 L 606,517 L 606,520 L 607,521 L 607,522 L 608,523 L 608,524 L 609,525 L 609,526 L 610,527 L 610,528 L 619,537 L 620,537 L 621,538 L 622,538 L 623,539 L 624,539 L 625,540 L 627,540 L 628,541 L 634,541 L 635,542 L 641,542 L 642,541 L 648,541 L 649,540 L 650,540 L 651,539 L 653,539 L 655,537 L 656,537 L 657,536 L 658,536 L 665,529 L 665,528 L 666,527 L 666,526 L 667,525 L 667,524 L 668,523 L 668,522 L 669,521 L 669,520 L 670,519 L 670,517 L 671,516 L 671,501 L 670,500 L 670,498 L 669,497 L 669,495 L 668,494 L 668,493 L 667,492 L 667,491 L 665,489 L 665,488 L 663,486 L 663,484 L 661,484 L 660,483 L 659,483 L 656,480 L 655,480 L 653,478 L 652,478 L 651,477 L 650,477 L 649,476 L 644,476 L 643,475 Z" fill="black" stroke="none"/><path d="M 672,425 L 673,425 Z" fill="black" stroke="none"/><path d="M 437,415 L 438,415 Z" fill="black" stroke="none"/><path d="M 350,350 L 350,351 Z" fill="black" stroke="none"/><path d="M 609,333 Z" fill="black" stroke="none"/><path d="M 335,327 Z" fill="black" stroke="none"/><path d="M 325,275 Z" fill="black" stroke="none"/><path d="M 376,273 Z" fill="black" stroke="none"/><path d="M 250,262 L 249,263 L 244,263 L 243,264 L 238,264 L 237,265 L 236,265 L 235,266 L 234,265 L 234,266 L 229,271 L 229,273 L 228,274 L 228,278 L 227,279 L 228,280 L 228,284 L 229,285 L 229,286 L 230,287 L 230,289 L 232,289 L 233,290 L 233,291 L 235,291 L 236,292 L 237,292 L 238,293 L 249,293 L 250,292 L 254,292 L 255,291 L 276,291 L 277,292 L 281,292 L 282,293 L 285,293 L 286,294 L 291,294 L 292,295 L 294,295 L 295,296 L 296,296 L 297,297 L 299,297 L 300,298 L 301,298 L 302,299 L 303,299 L 304,300 L 305,300 L 306,301 L 307,301 L 309,303 L 311,303 L 313,305 L 314,305 L 316,307 L 317,307 L 318,308 L 319,308 L 320,309 L 319,310 L 320,311 L 321,310 L 322,311 L 323,311 L 338,326 L 337,327 L 338,327 L 340,329 L 340,330 L 344,334 L 344,335 L 345,336 L 345,337 L 346,338 L 346,339 L 347,340 L 347,341 L 348,342 L 348,343 L 349,344 L 349,345 L 350,346 L 350,347 L 352,349 L 352,351 L 353,352 L 353,353 L 354,354 L 354,355 L 355,356 L 355,357 L 356,358 L 356,359 L 357,360 L 357,361 L 358,362 L 358,363 L 360,365 L 360,367 L 362,369 L 362,371 L 363,372 L 363,373 L 365,375 L 365,376 L 366,377 L 366,379 L 368,381 L 368,382 L 369,383 L 369,385 L 370,386 L 370,387 L 371,388 L 371,389 L 372,390 L 372,391 L 373,392 L 373,393 L 374,394 L 374,395 L 376,397 L 376,398 L 377,399 L 377,400 L 378,401 L 378,403 L 379,404 L 379,405 L 381,407 L 381,409 L 382,410 L 382,411 L 383,412 L 383,413 L 385,415 L 385,417 L 386,418 L 386,420 L 388,422 L 388,423 L 389,424 L 389,425 L 390,426 L 390,427 L 392,429 L 392,431 L 394,433 L 394,434 L 396,436 L 396,437 L 398,439 L 398,440 L 399,441 L 399,442 L 403,446 L 403,447 L 406,450 L 406,451 L 407,451 L 412,456 L 412,457 L 414,459 L 415,459 L 423,467 L 424,467 L 425,468 L 426,468 L 428,470 L 429,470 L 430,471 L 431,471 L 432,472 L 432,473 L 433,473 L 434,474 L 435,474 L 436,475 L 437,475 L 438,476 L 439,476 L 440,477 L 441,477 L 443,479 L 445,479 L 446,480 L 447,480 L 448,481 L 449,481 L 450,482 L 451,482 L 452,483 L 455,483 L 456,484 L 458,484 L 459,485 L 460,485 L 461,486 L 463,486 L 464,487 L 468,487 L 469,488 L 473,488 L 474,489 L 483,489 L 484,490 L 505,490 L 506,489 L 515,489 L 516,488 L 518,488 L 519,487 L 524,487 L 525,486 L 527,486 L 528,485 L 534,485 L 535,484 L 539,484 L 540,483 L 546,483 L 547,482 L 550,482 L 551,481 L 555,481 L 556,480 L 559,480 L 560,479 L 566,479 L 567,478 L 570,478 L 571,477 L 576,477 L 577,476 L 580,476 L 581,475 L 586,475 L 587,474 L 590,474 L 591,473 L 597,473 L 598,472 L 599,472 L 600,471 L 607,471 L 608,470 L 610,470 L 611,469 L 617,469 L 618,468 L 622,468 L 623,467 L 628,467 L 629,466 L 633,466 L 634,465 L 637,465 L 638,464 L 642,464 L 643,463 L 649,463 L 650,462 L 653,462 L 654,461 L 660,461 L 661,460 L 663,460 L 664,459 L 669,459 L 670,458 L 674,458 L 675,457 L 681,457 L 682,456 L 685,456 L 686,455 L 690,455 L 691,454 L 693,454 L 695,452 L 696,452 L 700,448 L 700,446 L 701,445 L 701,442 L 702,441 L 702,440 L 701,439 L 701,436 L 700,435 L 700,433 L 698,431 L 698,430 L 696,428 L 694,428 L 693,427 L 691,427 L 690,426 L 683,426 L 682,427 L 680,427 L 679,426 L 679,427 L 678,428 L 672,428 L 671,429 L 668,429 L 667,430 L 662,430 L 661,431 L 658,431 L 657,432 L 652,432 L 651,433 L 647,433 L 646,434 L 641,434 L 640,435 L 636,435 L 635,436 L 631,436 L 630,437 L 626,437 L 625,438 L 619,438 L 618,439 L 616,439 L 615,440 L 610,440 L 609,441 L 605,441 L 604,442 L 598,442 L 597,443 L 595,443 L 594,444 L 589,444 L 588,445 L 584,445 L 583,446 L 579,446 L 578,447 L 574,447 L 573,448 L 568,448 L 567,449 L 564,449 L 563,450 L 557,450 L 556,451 L 553,451 L 552,452 L 547,452 L 546,453 L 544,453 L 543,452 L 542,453 L 541,453 L 540,454 L 534,454 L 533,455 L 532,455 L 531,456 L 526,456 L 525,457 L 521,457 L 520,458 L 515,458 L 514,459 L 512,459 L 511,458 L 511,459 L 510,460 L 504,460 L 503,461 L 484,461 L 483,460 L 478,460 L 477,459 L 475,459 L 474,458 L 470,458 L 469,457 L 467,457 L 466,456 L 464,456 L 463,455 L 462,455 L 461,454 L 459,454 L 457,452 L 455,452 L 454,451 L 453,451 L 452,450 L 451,450 L 449,448 L 448,448 L 446,446 L 445,446 L 443,444 L 442,444 L 441,443 L 441,442 L 440,442 L 439,441 L 439,440 L 437,440 L 433,436 L 433,435 L 432,435 L 430,433 L 430,432 L 425,427 L 425,426 L 424,425 L 424,424 L 421,421 L 421,420 L 419,418 L 419,417 L 418,416 L 418,415 L 417,414 L 417,413 L 416,412 L 416,411 L 415,410 L 415,409 L 413,407 L 413,405 L 411,403 L 411,401 L 409,399 L 409,397 L 408,396 L 408,395 L 407,394 L 407,393 L 405,391 L 405,389 L 404,388 L 404,387 L 402,385 L 402,384 L 401,383 L 401,381 L 399,379 L 399,377 L 397,375 L 397,373 L 395,371 L 395,369 L 393,367 L 393,365 L 392,364 L 392,362 L 389,359 L 389,357 L 388,356 L 388,355 L 386,353 L 386,352 L 385,351 L 385,349 L 384,348 L 384,347 L 383,346 L 383,345 L 381,343 L 381,341 L 379,339 L 379,337 L 377,335 L 377,332 L 375,330 L 375,329 L 373,327 L 373,326 L 372,325 L 372,324 L 370,322 L 370,321 L 369,320 L 369,318 L 367,316 L 367,315 L 366,315 L 365,314 L 365,313 L 363,311 L 363,310 L 361,308 L 361,307 L 355,301 L 355,300 L 354,299 L 353,299 L 344,290 L 343,290 L 337,284 L 335,284 L 333,282 L 332,282 L 330,280 L 329,280 L 327,278 L 326,278 L 325,277 L 324,277 L 323,276 L 322,276 L 321,275 L 320,275 L 319,274 L 318,274 L 317,273 L 316,273 L 315,272 L 314,272 L 313,271 L 311,271 L 310,270 L 308,270 L 307,269 L 306,269 L 305,268 L 303,268 L 302,267 L 300,267 L 299,266 L 295,266 L 294,265 L 291,265 L 290,264 L 287,264 L 286,263 L 283,263 L 282,262 Z" fill="black" stroke="none"/><path d="M 659,241 Z" fill="black" stroke="none"/><path d="M 560,235 Z" fill="black" stroke="none"/><path d="M 629,229 L 628,230 L 628,252 L 627,253 L 627,261 L 626,262 L 626,271 L 625,272 L 625,277 L 624,278 L 624,284 L 623,285 L 623,288 L 622,289 L 622,294 L 621,295 L 621,298 L 620,299 L 620,303 L 619,304 L 619,308 L 618,309 L 618,312 L 617,313 L 617,316 L 616,317 L 616,319 L 615,320 L 615,322 L 614,323 L 614,325 L 613,326 L 613,328 L 612,329 L 612,332 L 611,333 L 611,335 L 610,336 L 610,337 L 609,338 L 609,340 L 608,341 L 608,342 L 607,343 L 607,344 L 606,345 L 606,346 L 605,347 L 605,349 L 604,350 L 604,352 L 603,353 L 603,354 L 602,355 L 602,356 L 601,357 L 601,358 L 600,359 L 600,361 L 598,363 L 598,364 L 597,365 L 597,366 L 596,367 L 596,368 L 595,369 L 595,370 L 593,372 L 593,373 L 592,374 L 592,375 L 590,377 L 590,378 L 588,380 L 588,381 L 587,382 L 587,383 L 586,384 L 585,383 L 584,383 L 585,383 L 586,384 L 586,385 L 583,388 L 583,389 L 581,391 L 581,392 L 577,396 L 577,397 L 576,398 L 576,399 L 575,400 L 574,400 L 573,401 L 573,402 L 567,408 L 566,408 L 566,410 L 565,411 L 564,411 L 560,415 L 560,416 L 559,417 L 558,417 L 553,422 L 552,422 L 552,423 L 551,424 L 550,424 L 548,426 L 547,426 L 547,427 L 546,428 L 545,428 L 542,431 L 541,431 L 538,434 L 537,434 L 536,435 L 535,435 L 532,438 L 531,438 L 529,440 L 530,441 L 532,441 L 533,440 L 536,440 L 537,439 L 543,439 L 544,438 L 546,438 L 547,437 L 551,437 L 552,436 L 557,436 L 558,435 L 561,435 L 562,434 L 566,434 L 567,433 L 570,433 L 571,432 L 574,432 L 575,431 L 580,431 L 581,430 L 584,430 L 585,429 L 590,429 L 591,428 L 594,428 L 595,427 L 600,427 L 601,426 L 604,426 L 605,425 L 610,425 L 611,424 L 613,424 L 614,423 L 618,423 L 619,422 L 623,422 L 624,421 L 628,421 L 629,420 L 632,420 L 633,419 L 638,419 L 639,418 L 642,418 L 643,417 L 646,417 L 647,416 L 651,416 L 652,415 L 656,415 L 657,414 L 660,414 L 661,413 L 667,413 L 668,412 L 671,412 L 672,411 L 676,411 L 677,410 L 681,410 L 682,409 L 686,409 L 687,408 L 688,408 L 689,407 L 689,387 L 688,386 L 688,375 L 687,374 L 687,358 L 686,357 L 686,342 L 685,341 L 685,322 L 684,321 L 684,312 L 683,311 L 683,292 L 682,291 L 682,286 L 681,285 L 681,278 L 680,277 L 680,276 L 679,275 L 679,273 L 678,272 L 678,271 L 677,270 L 677,268 L 676,267 L 676,266 L 675,265 L 675,264 L 674,263 L 674,262 L 673,261 L 673,260 L 670,257 L 670,256 L 668,254 L 668,253 L 665,250 L 665,249 L 664,248 L 663,248 L 657,242 L 656,242 L 654,240 L 653,240 L 652,239 L 652,238 L 651,238 L 650,237 L 649,237 L 648,236 L 647,236 L 644,233 L 641,233 L 640,232 L 638,232 L 636,230 L 632,230 L 631,229 Z" fill="black" stroke="none"/><path d="M 603,227 L 602,228 L 597,228 L 596,229 L 593,229 L 592,230 L 587,230 L 586,231 L 585,231 L 584,232 L 579,232 L 578,233 L 574,233 L 573,234 L 570,234 L 569,235 L 566,235 L 565,236 L 562,236 L 561,237 L 557,237 L 556,238 L 553,238 L 552,239 L 551,238 L 550,239 L 549,239 L 548,240 L 543,240 L 542,241 L 540,241 L 539,242 L 534,242 L 533,243 L 531,243 L 530,244 L 526,244 L 525,245 L 522,245 L 521,246 L 516,246 L 515,247 L 513,247 L 512,248 L 507,248 L 506,249 L 504,249 L 503,250 L 500,250 L 499,251 L 496,251 L 495,252 L 491,252 L 490,253 L 485,253 L 484,254 L 482,254 L 481,255 L 478,255 L 477,256 L 473,256 L 472,257 L 469,257 L 468,258 L 463,258 L 462,259 L 460,259 L 459,260 L 456,260 L 455,261 L 452,261 L 451,262 L 445,262 L 444,263 L 442,263 L 441,264 L 437,264 L 436,265 L 434,265 L 433,266 L 432,266 L 431,265 L 430,266 L 428,266 L 427,267 L 424,267 L 423,268 L 419,268 L 418,269 L 415,269 L 414,270 L 409,270 L 408,271 L 406,271 L 405,272 L 402,272 L 401,273 L 397,273 L 396,274 L 393,274 L 392,275 L 389,275 L 388,276 L 385,276 L 384,277 L 383,276 L 382,277 L 380,277 L 379,278 L 373,278 L 372,279 L 372,280 L 371,281 L 371,282 L 372,283 L 372,285 L 373,286 L 373,287 L 374,288 L 374,289 L 375,290 L 375,291 L 376,292 L 376,293 L 378,295 L 378,297 L 379,298 L 379,299 L 380,300 L 380,301 L 381,302 L 381,303 L 382,304 L 382,306 L 384,308 L 384,309 L 385,310 L 385,311 L 386,312 L 386,314 L 388,316 L 388,318 L 390,320 L 390,323 L 391,324 L 391,325 L 393,327 L 393,328 L 394,329 L 394,331 L 395,332 L 395,333 L 396,334 L 396,335 L 395,336 L 396,335 L 398,337 L 398,339 L 399,340 L 399,341 L 400,342 L 400,344 L 402,346 L 402,347 L 403,348 L 403,349 L 404,350 L 404,351 L 405,352 L 405,353 L 406,354 L 406,356 L 408,358 L 408,359 L 409,360 L 409,362 L 410,363 L 410,364 L 411,365 L 411,366 L 412,367 L 412,368 L 413,369 L 413,370 L 414,371 L 414,372 L 415,373 L 415,374 L 416,375 L 416,376 L 417,377 L 417,378 L 418,379 L 418,381 L 419,382 L 419,383 L 420,384 L 420,385 L 421,386 L 421,387 L 422,388 L 422,389 L 424,391 L 424,392 L 425,393 L 425,394 L 426,395 L 426,396 L 427,397 L 427,398 L 430,401 L 430,402 L 431,403 L 431,404 L 432,404 L 434,406 L 434,407 L 438,411 L 438,412 L 439,412 L 441,414 L 441,415 L 443,417 L 444,417 L 446,419 L 447,419 L 450,422 L 453,422 L 454,421 L 455,421 L 456,420 L 457,420 L 458,419 L 459,419 L 460,418 L 461,418 L 462,417 L 463,417 L 464,416 L 465,416 L 466,415 L 468,415 L 470,413 L 472,413 L 474,411 L 475,411 L 476,410 L 477,410 L 478,409 L 479,409 L 480,408 L 481,408 L 483,406 L 484,406 L 485,405 L 486,405 L 487,404 L 488,404 L 489,403 L 490,403 L 492,401 L 493,401 L 494,400 L 495,400 L 498,397 L 499,397 L 500,396 L 501,396 L 503,394 L 504,394 L 506,392 L 507,392 L 509,390 L 510,390 L 511,389 L 512,389 L 514,387 L 515,387 L 519,383 L 520,383 L 523,380 L 524,380 L 527,377 L 528,377 L 530,375 L 531,375 L 535,371 L 536,371 L 537,370 L 537,369 L 539,367 L 540,367 L 546,361 L 547,361 L 550,358 L 550,357 L 551,356 L 552,356 L 555,353 L 555,352 L 557,350 L 558,350 L 558,349 L 559,348 L 560,348 L 561,347 L 561,346 L 569,338 L 569,337 L 573,333 L 573,332 L 577,328 L 577,327 L 580,324 L 580,323 L 582,321 L 582,320 L 583,319 L 584,319 L 584,318 L 585,317 L 585,316 L 588,313 L 588,312 L 589,311 L 589,310 L 592,307 L 592,306 L 593,305 L 593,304 L 594,303 L 594,302 L 596,300 L 596,299 L 597,298 L 597,297 L 598,296 L 598,295 L 599,294 L 600,294 L 600,292 L 601,291 L 601,290 L 602,289 L 602,288 L 603,287 L 603,286 L 604,285 L 604,284 L 605,283 L 605,282 L 606,281 L 606,279 L 608,277 L 608,276 L 609,275 L 609,273 L 610,272 L 610,271 L 611,270 L 611,268 L 612,267 L 612,266 L 613,265 L 613,264 L 614,263 L 614,261 L 615,260 L 615,259 L 616,258 L 616,256 L 617,255 L 617,251 L 618,250 L 618,249 L 619,248 L 619,246 L 620,245 L 620,242 L 621,241 L 621,238 L 622,237 L 622,236 L 623,235 L 623,231 L 624,230 L 623,229 L 623,228 L 622,227 Z" fill="black" stroke="none"/></svg>